<svg width="233" height="51" viewBox="0 0 233 51" fill="none" xmlns="http://www.w3.org/2000/svg">
<path fill-rule="evenodd" clip-rule="evenodd" d="M21 24H23V30H21H15V24V15C15 6.71573 21.7157 0 30 0C34.3108 0 38.197 1.81849 40.9331 4.7302C37.5471 4.79274 32.8342 5.17237 28.6164 6.1057C28.1215 6.18205 27.64 6.29871 27.1752 6.45222C27.1167 6.4675 27.0583 6.4829 27 6.49843L27.0134 6.50738C23.5108 7.7391 21 11.0763 21 15V24ZM33.766 6.82341C36.8557 8.24884 39 11.374 39 15C39 19.9706 34.9706 24 30 24H31V29.9672C38.818 29.4526 45 22.9482 45 15C45 11.7218 43.9484 8.68916 42.1641 6.22113C39.7204 6.12676 36.6168 6.21917 33.766 6.82341Z" fill="#00ADA2"/>
<path fill-rule="evenodd" clip-rule="evenodd" d="M24 21L22 21L22 15L24 15L30 15L30 21L30 30C30 38.2843 23.2843 45 15 45C10.6892 45 6.80303 43.1815 4.06691 40.2698C7.45289 40.2073 12.1658 39.8276 16.3836 38.8943C16.8785 38.818 17.36 38.7013 17.8248 38.5478C17.8833 38.5325 17.9417 38.5171 18 38.5016L17.9866 38.4926C21.4892 37.2609 24 33.9237 24 30L24 21ZM11.234 38.1766C8.14431 36.7512 6 33.626 6 30C6 25.0294 10.0294 21 15 21L14 21L14 15.0328C6.18197 15.5474 -2.0062e-06 22.0518 -1.31134e-06 30C-1.02475e-06 33.2782 1.05163 36.3108 2.83594 38.7789C5.27956 38.8732 8.38324 38.7808 11.234 38.1766Z" fill="#007360"/>
<path d="M51.106 16.611C51.366 16.533 51.782 16.455 52.354 16.377C52.926 16.273 53.511 16.221 54.109 16.221C54.681 16.221 55.188 16.26 55.63 16.338C56.098 16.416 56.488 16.572 56.8 16.806C57.112 17.04 57.346 17.365 57.502 17.781C57.658 18.171 57.736 18.691 57.736 19.341V23.163C58.386 22.903 58.997 22.721 59.569 22.617C60.167 22.513 60.817 22.461 61.519 22.461C62.767 22.461 63.95 22.682 65.068 23.124C66.186 23.566 67.174 24.216 68.032 25.074C68.89 25.906 69.566 26.946 70.06 28.194C70.554 29.442 70.801 30.885 70.801 32.523C70.801 34.213 70.541 35.695 70.021 36.969C69.527 38.217 68.825 39.257 67.915 40.089C67.005 40.921 65.887 41.558 64.561 42C63.261 42.416 61.818 42.624 60.232 42.624C58.516 42.624 57.06 42.416 55.864 42C54.668 41.61 53.654 41.116 52.822 40.518C51.678 39.712 51.106 38.672 51.106 37.398V16.611ZM60.232 37.398C61.428 37.398 62.351 36.995 63.001 36.189C63.677 35.357 64.015 34.135 64.015 32.523C64.015 30.885 63.677 29.663 63.001 28.857C62.325 28.051 61.415 27.648 60.271 27.648C59.751 27.648 59.296 27.7 58.906 27.804C58.542 27.908 58.139 28.064 57.697 28.272V36.774C57.983 36.956 58.321 37.112 58.711 37.242C59.127 37.346 59.634 37.398 60.232 37.398Z" fill="#007360"/>
<path d="M79.2189 41.961C78.9329 42.013 78.5039 42.078 77.9319 42.156C77.3859 42.26 76.8269 42.312 76.2549 42.312C75.6829 42.312 75.1629 42.273 74.6949 42.195C74.2529 42.117 73.8759 41.961 73.5639 41.727C73.2519 41.493 73.0049 41.181 72.8229 40.791C72.6669 40.375 72.5889 39.842 72.5889 39.192V16.572C72.8749 16.52 73.2909 16.455 73.8369 16.377C74.4089 16.273 74.9809 16.221 75.5529 16.221C76.1249 16.221 76.6319 16.26 77.0739 16.338C77.5419 16.416 77.9319 16.572 78.2439 16.806C78.5559 17.04 78.7899 17.365 78.9459 17.781C79.1279 18.171 79.2189 18.691 79.2189 19.341V41.961ZM91.8656 42.624C90.3316 42.624 88.9016 42.416 87.5756 42C86.2756 41.558 85.1316 40.908 84.1436 40.05C83.1816 39.192 82.4146 38.113 81.8426 36.813C81.2966 35.513 81.0236 33.992 81.0236 32.25C81.0236 30.534 81.2966 29.065 81.8426 27.843C82.4146 26.595 83.1556 25.581 84.0656 24.801C84.9756 23.995 86.0156 23.41 87.1856 23.046C88.3556 22.656 89.5516 22.461 90.7736 22.461C92.1516 22.461 93.3996 22.669 94.5176 23.085C95.6616 23.501 96.6366 24.073 97.4426 24.801C98.2746 25.529 98.9116 26.4 99.3536 27.414C99.8216 28.428 100.056 29.533 100.056 30.729C100.056 31.613 99.8086 32.289 99.3146 32.757C98.8206 33.225 98.1316 33.524 97.2476 33.654L87.6146 35.097C87.9006 35.955 88.4856 36.605 89.3696 37.047C90.2536 37.463 91.2676 37.671 92.4116 37.671C93.4776 37.671 94.4786 37.541 95.4146 37.281C96.3766 36.995 97.1566 36.67 97.7546 36.306C98.1706 36.566 98.5216 36.93 98.8076 37.398C99.0936 37.866 99.2366 38.36 99.2366 38.88C99.2366 40.05 98.6906 40.921 97.5986 41.493C96.7666 41.935 95.8306 42.234 94.7906 42.39C93.7506 42.546 92.7756 42.624 91.8656 42.624ZM90.7736 27.297C90.1496 27.297 89.6036 27.401 89.1356 27.609C88.6936 27.817 88.3296 28.09 88.0436 28.428C87.7576 28.74 87.5366 29.104 87.3806 29.52C87.2506 29.91 87.1726 30.313 87.1466 30.729L93.8156 29.637C93.7376 29.117 93.4516 28.597 92.9576 28.077C92.4636 27.557 91.7356 27.297 90.7736 27.297ZM113.699 29.988C113.699 29.182 113.465 28.597 112.997 28.233C112.555 27.843 111.944 27.648 111.164 27.648C110.644 27.648 110.124 27.713 109.604 27.843C109.11 27.973 108.681 28.168 108.317 28.428V41.961C108.057 42.039 107.641 42.117 107.069 42.195C106.523 42.273 105.951 42.312 105.353 42.312C104.781 42.312 104.261 42.273 103.793 42.195C103.351 42.117 102.974 41.961 102.662 41.727C102.35 41.493 102.103 41.181 101.921 40.791C101.765 40.375 101.687 39.842 101.687 39.192V27.492C101.687 26.79 101.83 26.218 102.116 25.776C102.428 25.334 102.844 24.931 103.364 24.567C104.248 23.943 105.353 23.436 106.679 23.046C108.031 22.656 109.526 22.461 111.164 22.461C114.102 22.461 116.364 23.111 117.95 24.411C119.536 25.685 120.329 27.466 120.329 29.754V41.961C120.069 42.039 119.653 42.117 119.081 42.195C118.535 42.273 117.963 42.312 117.365 42.312C116.793 42.312 116.273 42.273 115.805 42.195C115.363 42.117 114.986 41.961 114.674 41.727C114.362 41.493 114.115 41.181 113.933 40.791C113.777 40.375 113.699 39.842 113.699 39.192V29.988ZM122.045 32.523C122.045 30.807 122.305 29.325 122.825 28.077C123.345 26.803 124.06 25.75 124.97 24.918C125.906 24.086 126.985 23.475 128.207 23.085C129.455 22.669 130.794 22.461 132.224 22.461C132.744 22.461 133.251 22.513 133.745 22.617C134.239 22.695 134.642 22.799 134.954 22.929V16.611C135.214 16.533 135.63 16.455 136.202 16.377C136.774 16.273 137.359 16.221 137.957 16.221C138.529 16.221 139.036 16.26 139.478 16.338C139.946 16.416 140.336 16.572 140.648 16.806C140.96 17.04 141.194 17.365 141.35 17.781C141.506 18.171 141.584 18.691 141.584 19.341V37.827C141.584 39.049 141.012 40.024 139.868 40.752C139.114 41.246 138.139 41.675 136.943 42.039C135.747 42.429 134.369 42.624 132.809 42.624C131.119 42.624 129.598 42.39 128.246 41.922C126.92 41.454 125.789 40.778 124.853 39.894C123.943 39.01 123.241 37.957 122.747 36.735C122.279 35.487 122.045 34.083 122.045 32.523ZM133.121 27.648C131.717 27.648 130.638 28.051 129.884 28.857C129.13 29.663 128.753 30.885 128.753 32.523C128.753 34.135 129.104 35.357 129.806 36.189C130.508 36.995 131.522 37.398 132.848 37.398C133.316 37.398 133.732 37.333 134.096 37.203C134.486 37.047 134.785 36.878 134.993 36.696V28.116C134.473 27.804 133.849 27.648 133.121 27.648ZM142.986 38.841C142.986 37.749 143.324 36.839 144 36.111C144.676 35.383 145.599 35.019 146.769 35.019C147.939 35.019 148.862 35.383 149.538 36.111C150.214 36.839 150.552 37.749 150.552 38.841C150.552 39.933 150.214 40.843 149.538 41.571C148.862 42.299 147.939 42.663 146.769 42.663C145.599 42.663 144.676 42.299 144 41.571C143.324 40.843 142.986 39.933 142.986 38.841ZM160.586 22.461C162.146 22.461 163.589 22.669 164.915 23.085C166.267 23.475 167.424 24.086 168.386 24.918C169.348 25.75 170.102 26.803 170.648 28.077C171.194 29.325 171.467 30.82 171.467 32.562C171.467 34.226 171.233 35.682 170.765 36.93C170.297 38.178 169.634 39.231 168.776 40.089C167.918 40.921 166.878 41.545 165.656 41.961C164.46 42.377 163.121 42.585 161.639 42.585C160.521 42.585 159.481 42.416 158.519 42.078V48.552C158.259 48.63 157.843 48.708 157.271 48.786C156.699 48.89 156.114 48.942 155.516 48.942C154.944 48.942 154.424 48.903 153.956 48.825C153.514 48.747 153.137 48.591 152.825 48.357C152.513 48.123 152.279 47.798 152.123 47.382C151.967 46.992 151.889 46.472 151.889 45.822V27.102C151.889 26.4 152.032 25.828 152.318 25.386C152.63 24.944 153.046 24.541 153.566 24.177C154.372 23.657 155.373 23.241 156.569 22.929C157.765 22.617 159.104 22.461 160.586 22.461ZM160.664 37.359C163.342 37.359 164.681 35.76 164.681 32.562C164.681 30.898 164.343 29.663 163.667 28.857C163.017 28.051 162.068 27.648 160.82 27.648C160.326 27.648 159.884 27.713 159.494 27.843C159.104 27.947 158.766 28.077 158.48 28.233V36.813C158.792 36.969 159.13 37.099 159.494 37.203C159.858 37.307 160.248 37.359 160.664 37.359ZM191.862 41.961C191.602 42.039 191.186 42.117 190.614 42.195C190.068 42.273 189.496 42.312 188.898 42.312C188.326 42.312 187.806 42.273 187.338 42.195C186.896 42.117 186.519 41.961 186.207 41.727C185.895 41.493 185.648 41.181 185.466 40.791C185.31 40.375 185.232 39.842 185.232 39.192V30.534C185.232 29.468 184.959 28.727 184.413 28.311C183.893 27.869 183.243 27.648 182.463 27.648C181.943 27.648 181.449 27.713 180.981 27.843C180.513 27.973 180.136 28.129 179.85 28.311V41.961C179.59 42.039 179.174 42.117 178.602 42.195C178.056 42.273 177.484 42.312 176.886 42.312C176.314 42.312 175.794 42.273 175.326 42.195C174.884 42.117 174.507 41.961 174.195 41.727C173.883 41.493 173.636 41.181 173.454 40.791C173.298 40.375 173.22 39.842 173.22 39.192V16.572C173.506 16.52 173.922 16.455 174.468 16.377C175.04 16.273 175.612 16.221 176.184 16.221C176.756 16.221 177.263 16.26 177.705 16.338C178.173 16.416 178.563 16.572 178.875 16.806C179.187 17.04 179.421 17.365 179.577 17.781C179.759 18.171 179.85 18.691 179.85 19.341V23.163C180.188 23.033 180.695 22.89 181.371 22.734C182.073 22.552 182.84 22.461 183.672 22.461C186.246 22.461 188.248 23.111 189.678 24.411C191.134 25.685 191.862 27.596 191.862 30.144V41.961Z" fill="#00ADA2"/>
</svg>
