<svg width="457" height="500" viewBox="0 0 457 500" fill="none" xmlns="http://www.w3.org/2000/svg">
<path d="M362.471 283.428C362.471 283.428 388.874 325.742 414.107 349.053C439.34 372.365 468.71 396.247 450.923 440.102C433.135 483.957 380.709 501.916 286.958 499.625C193.207 497.333 160.105 496.834 139.544 450.325C118.983 403.816 187.413 393.385 234.156 379.245C280.899 365.105 362.471 283.428 362.471 283.428Z" fill="#D7E1EA"/>
<path opacity="0.49" d="M366.98 375.801C366.98 375.801 379.839 425.436 333.992 437.218C288.146 449.004 202.6 447.269 170.394 424.337C138.188 401.405 366.98 375.801 366.98 375.801Z" fill="url(#paint0_linear)"/>
<path d="M329.585 117.644C329.585 117.644 335.034 129.752 326.52 137.206C318.006 144.66 306.432 138.761 295.198 145.588C283.963 152.415 285.173 160.505 290.327 178.518C296.456 199.944 303.151 199.304 309.17 200.854C315.189 202.408 316.986 219.175 317.666 226.939C318.346 234.702 319.366 239.979 297.918 250.538C276.47 261.096 288.172 277.245 290.322 298.177C292.703 321.33 265.231 334.684 260.466 340.274C255.701 345.865 244.463 346.797 238.333 334.997C232.204 323.198 263.35 314.512 260.629 295.572C257.905 276.632 241.274 263.887 264.767 245.256C288.26 226.625 283.619 211.726 275.789 196.513C267.96 181.3 264.215 175.4 270.68 155.837C277.145 136.275 270.34 142.174 278.85 126.648C287.368 111.126 318.351 94.0446 329.585 117.644Z" fill="#00ADA2"/>
<path d="M314.77 209.544L316.479 241.423L341.433 251.045C341.433 251.045 326.428 229.089 328.971 209.54C331.515 189.994 314.77 209.544 314.77 209.544Z" fill="#D4A79A"/>
<path d="M372.601 312.962C372.601 312.962 370.945 309.928 365.981 294.348C361.018 278.769 359.225 272.975 352.332 257.899C345.438 242.823 331.095 233.404 331.095 233.404L313.171 232.437C313.171 232.437 310.963 232.573 300.625 241.123C290.283 249.672 280.356 274.079 280.356 274.079L275.944 322.615L306.971 345.503L328.901 353.407C327.845 351.999 326.993 350.506 326.463 348.925C322.789 338.005 335.101 277.524 335.516 272.145C335.931 266.766 346.348 318.062 346.348 318.062L355.37 315.443L361.561 335.17L365.434 315.028L372.601 312.962Z" fill="#FF3E1D"/>
<path d="M362.811 339.161L361.557 335.169L359.557 345.573L362.811 339.161Z" fill="url(#paint1_linear)"/>
<path d="M346.339 318.062C346.339 318.062 335.922 266.766 335.507 272.145C335.092 277.523 322.78 338.004 326.454 348.925C326.984 350.506 327.836 351.999 328.892 353.407L351.453 361.537L359.556 345.569L361.557 335.165L355.366 315.439L346.339 318.062Z" fill="#FDC510"/>
<path d="M346.339 318.062C346.339 318.062 335.922 266.766 335.507 272.145C335.092 277.523 322.78 338.004 326.454 348.925C326.984 350.506 327.836 351.999 328.892 353.407L351.453 361.537L359.556 345.569L361.557 335.165L355.366 315.439L346.339 318.062Z" fill="#DB2215"/>
<path d="M163.51 298.773L290.186 304.885L314.77 328.696L196.448 325.715L163.51 298.773Z" fill="black"/>
<path d="M282.961 308.727L168.597 301.003C165.506 301.242 162.825 299.162 162.609 296.349L139.562 234.517C139.345 231.708 141.673 229.235 144.759 228.997L259.124 236.725C262.215 236.486 264.896 238.566 265.112 241.379L288.159 303.211C288.38 306.015 286.048 308.488 282.961 308.727Z" fill="#D7E1EA"/>
<path d="M225.587 274.05C226.945 267.799 222.135 261.446 214.842 259.861C207.549 258.276 200.536 262.059 199.177 268.31C197.818 274.561 202.629 280.914 209.922 282.499C217.214 284.084 224.228 280.301 225.587 274.05Z" fill="#35425B"/>
<path d="M111.397 408.572L79.0586 455.933L93.7814 468.373L124.587 416.953C124.587 416.949 117.526 409.005 111.397 408.572Z" fill="#D4A79A"/>
<path d="M13.565 482.349C13.565 482.349 26.0048 486.598 49.8422 488.364C73.6796 490.135 100.286 491.018 105.121 487.481C109.957 483.944 113.066 453.866 105.121 453.866C97.1769 453.866 94.0858 465.366 80.0739 455.103C68.0713 446.311 58.4798 462.888 37.5791 467.309C16.6783 471.729 8.21288 473.504 13.565 482.349Z" fill="#D4BA0A"/>
<path d="M312.689 357.36C309.832 351.986 294.368 355.015 275.834 348.122C257.296 341.228 245.324 326.748 224.264 310.065C203.204 293.381 204.644 296.274 195.556 295.585C186.468 294.896 175.216 319.44 168.866 332.405C155.499 359.705 138.581 384.099 113.309 399.97C105.629 404.792 71.794 423.136 66.1416 430.82C54.2362 446.991 112.77 447.128 128.076 448.996C143.227 450.842 151.723 442.235 157.852 428.634C164.847 413.12 172.5 397.938 180.144 382.756C183.968 375.161 187.81 367.57 191.559 359.934C193.176 356.645 196.673 344.704 200.572 343.216C212.566 338.65 228.397 375.209 231.762 383.423C238.541 399.97 263.354 419.276 281.385 421.206C299.415 423.136 312.976 411.142 318.889 393.628C324.807 376.115 312.689 357.36 312.689 357.36Z" fill="#00ADA2"/>
<path d="M173.082 412.162L140.744 459.523L155.467 471.963L186.273 420.544C186.268 420.539 179.212 412.595 173.082 412.162Z" fill="#FFE6D1"/>
<path d="M75.2513 485.94C75.2513 485.94 87.6911 490.188 111.528 491.954C135.366 493.725 161.972 494.608 166.808 491.071C171.643 487.534 174.752 457.457 166.808 457.457C158.863 457.457 155.772 468.956 141.76 458.693C129.758 449.901 120.166 466.479 99.2653 470.899C78.3645 475.319 69.8947 477.095 75.2513 485.94Z" fill="#FDC510"/>
<path d="M359.499 357.36C356.77 351.986 341.985 355.015 324.268 348.122C306.551 341.228 295.105 326.748 274.973 310.065C254.84 293.381 256.218 296.274 247.532 295.585C238.846 294.896 228.088 319.44 222.021 332.405C203.354 372.286 164.94 399.051 129.979 423.675C127.806 425.202 125.369 427.327 125.819 429.945C126.049 431.279 127.002 432.356 127.978 433.297C140.948 445.816 165.245 451.447 182.705 450.63C200.285 449.808 209.828 435.138 216.47 420.632C228.349 394.679 239.954 367.936 254.385 343.304C259.808 334.057 277.092 371.389 278.594 374.865C287.545 395.62 305.315 418.49 329.58 421.206C346.816 423.136 359.777 411.142 365.434 393.628C371.082 376.115 359.499 357.36 359.499 357.36Z" fill="#028079"/>
<path d="M355.087 338.331C355.087 338.331 355.087 345.914 352.19 344.536C349.293 343.158 322.13 326.196 318.545 322.2C314.959 318.199 306.547 303.723 306.136 300.827C305.721 297.93 307.103 297.793 301.446 298.619C295.794 299.444 285.588 302.619 287.107 304.408C288.622 306.201 292.897 304.96 292.897 304.96C292.897 304.96 287.889 308.131 290.322 308.546C292.755 308.961 299.927 307.579 299.927 309.787C299.927 311.995 299.512 319.44 301.168 323.163C302.824 326.885 304.891 328.126 310.269 329.367C315.648 330.608 316.597 330.193 321.018 334.746C325.438 339.299 350.119 361.219 353.29 362.323C356.46 363.427 357.838 365.357 361.702 358.322C365.566 351.288 368.321 345.914 368.595 334.883C368.869 323.851 367.628 313.235 367.628 313.235L355.356 315.443C355.365 315.443 356.465 327.852 355.087 338.331Z" fill="#FFE6D1"/>
<path d="M292.473 141.684C292.473 141.684 279.146 151.514 284.449 173.594C289.753 195.674 306.247 214.53 312.901 213.201C331.303 209.527 337.754 196.522 344.136 185.363C351.961 171.678 336.425 138.293 336.425 138.293L321.751 130.379L292.473 141.684Z" fill="#FFE6D1"/>
<path d="M319.03 131.93C319.03 131.93 328.29 135.034 336.429 148.074C344.568 161.115 339.229 163.243 339.229 180.726C339.229 185.835 338.27 190.869 335.502 195.224C333.492 198.385 330.626 200.876 328.546 203.976C325.919 207.889 325.08 212.304 325.292 216.972C325.738 226.842 327.314 235.038 336.08 240.611C345.557 246.634 349.977 254.68 352.468 265.552C355.448 278.57 376.91 285.936 384.4 280.968C391.889 276 369.549 279.317 373.978 257.895C378.403 236.469 379.922 227.376 366.983 221.423C354.044 215.471 360.227 213.899 367.036 200.858C373.845 187.818 356.292 187.977 363.221 165.279C371.218 139.079 363.971 109.881 324.815 117.953C285.659 126.025 319.03 131.93 319.03 131.93Z" fill="#00ADA2"/>
<path d="M309.496 156.862C320.73 150.03 318.01 144.656 326.524 137.206C335.034 129.752 329.589 117.644 329.589 117.644C318.355 94.0447 287.372 111.121 278.858 126.648C270.344 142.174 277.158 136.275 270.689 155.837C266.228 169.319 266.626 176.314 269.867 184.342L288.18 191.757C280.766 163.627 301.044 161.998 309.496 156.862Z" fill="#00ADA2"/>
<path d="M213.753 97.8619C213.152 105.933 208.049 114.076 200.239 115.187C212.031 118.842 223.375 142.272 231.636 151.787C180.874 149.761 129.774 147.246 87.7739 174.519C80.9753 178.924 73.5318 183.901 65.3775 182.61C61.5433 182.004 57.9601 180.023 54.6531 177.807C33.0009 163.29 20.2447 138.606 8.47265 115.086C6.43608 110.999 4.37002 106.168 6.29097 102.199C7.39594 99.9423 9.57265 98.5199 11.6933 97.2236C48.1922 75.0547 91.116 65.0495 126.202 40.3815C137.358 32.5522 152.151 8.43334 166.63 8.88181C179.466 9.30091 188.196 26.2907 193.304 36.3357C201.884 53.1848 215.13 78.867 213.753 97.8619Z" fill="#2EB29F"/>
<path d="M62.6476 130.039L50.5616 132.943L49.1429 125.833L61.801 124.179L54.6243 112.966L61.1317 109.308L67.111 121.501L74.8756 111.763L80.2494 116.737L71.2859 125.664L83.2219 130.577L80.0517 137.295L68.5601 130.997L67.8463 143.719L60.552 143.1L62.6476 130.039ZM93.4581 112.721L81.3721 115.626L79.9534 108.515L92.6115 106.862L85.4348 95.6481L91.9422 91.9905L97.9215 104.183L105.686 94.4453L111.06 99.4201L102.096 108.346L114.032 113.259L110.862 119.978L99.3706 113.68L98.6568 126.401L91.3625 125.783L93.4581 112.721ZM124.269 95.4037L112.183 98.3084L110.764 91.198L123.422 89.5446L116.245 78.3306L122.753 74.6731L128.732 86.8659L136.497 77.1278L141.87 82.1026L132.907 91.029L144.843 95.9417L141.673 102.66L130.181 96.3621L129.467 109.084L122.173 108.465L124.269 95.4037ZM155.079 78.0863L142.993 80.991L141.574 73.8806L154.232 72.2271L147.056 61.0132L153.563 57.3557L159.542 69.5484L167.307 59.8104L172.681 64.7852L163.717 73.7116L175.653 78.6242L172.483 85.3431L160.992 79.0447L160.278 91.7663L152.983 91.1477L155.079 78.0863Z" fill="white"/>
<defs>
<linearGradient id="paint0_linear" x1="383.024" y1="432.846" x2="380.702" y2="360.536" gradientUnits="userSpaceOnUse">
<stop stop-color="#A7ADFF"/>
<stop offset="1" stop-color="#E3E5FC"/>
</linearGradient>
<linearGradient id="paint1_linear" x1="376.287" y1="296.318" x2="320.328" y2="276.53" gradientUnits="userSpaceOnUse">
<stop stop-color="#A7ADFF"/>
<stop offset="1" stop-color="#E3E5FC"/>
</linearGradient>
</defs>
</svg>
